<svg width="35" height="36" viewBox="0 0 35 36" fill="none" xmlns="http://www.w3.org/2000/svg">
<g clip-path="url(#clip0)">
<path d="M28.107 12.3773L27.8983 11.2296C27.7061 10.1726 26.7868 9.4054 25.7124 9.4054H25.0849C24.8353 7.66859 23.338 6.32922 21.5333 6.32922H19.0382V1.78333C19.0382 1.31212 18.6548 0.928833 18.1837 0.928833H16.8165C16.3453 0.928833 15.962 1.31212 15.962 1.78333V6.32922H13.4669C11.6621 6.32922 10.1648 7.66859 9.9152 9.4054H9.28766C8.21332 9.4054 7.29403 10.1726 7.1018 11.2297L6.89317 12.3774C6.81134 12.8274 6.93247 13.2869 7.22553 13.638C7.5112 13.9803 7.92744 14.1798 8.37185 14.1897L10.9221 32.5517C11.0223 33.2723 11.622 33.8229 12.3389 33.8732V34.7325C12.3389 35.3921 12.8756 35.9288 13.5352 35.9288H21.4649C22.1245 35.9288 22.6612 35.3921 22.6612 34.7325V33.8731C23.3781 33.8228 23.9779 33.2722 24.078 32.5515L26.6283 14.1896C27.0727 14.1797 27.489 13.9803 27.7746 13.638C28.0677 13.2868 28.1888 12.8274 28.107 12.3773ZM16.9874 1.95422H18.0128V6.32922H16.9874V1.95422ZM25.1656 17.2667H19.0382V14.1906H25.5929L25.1656 17.2667ZM23.7142 27.7171C23.611 28.1649 23.2175 28.4777 22.7572 28.4777C22.2155 28.4777 21.7748 28.0369 21.7748 27.4953V27.1788C21.7748 26.2365 21.0081 25.4698 20.0658 25.4698C19.1235 25.4698 18.3568 26.2365 18.3568 27.1788V29.3298C18.3568 29.8023 17.9725 30.1866 17.5001 30.1866C17.0276 30.1866 16.6433 29.8023 16.6433 29.3298V27.1788C16.6433 26.2365 15.8767 25.4698 14.9343 25.4698C13.992 25.4698 13.2254 26.2365 13.2254 27.1788V27.4953C13.2254 28.0369 12.7846 28.4777 12.243 28.4777C11.7862 28.4777 11.3933 28.1679 11.2876 27.7242L11.2864 27.72L9.97693 18.2921H15.962V22.5646C15.962 23.0358 16.3453 23.4191 16.8165 23.4191H18.1837C18.6549 23.4191 19.0382 23.0358 19.0382 22.5646V18.2921H25.0232L23.7142 27.7171ZM16.9874 18.2921H18.0128V22.3937H16.9874V18.2921ZM18.0128 17.2667H16.9874V14.1906H18.0128V17.2667ZM15.962 17.2667H9.83453L9.40729 14.1906H15.962V17.2667ZM22.5545 32.8527H16.108C15.8249 32.8527 15.5953 33.0822 15.5953 33.3654C15.5953 33.6485 15.8249 33.8781 16.108 33.8781H21.6358V34.7325C21.6358 34.8267 21.5592 34.9034 21.4649 34.9034H13.5352C13.441 34.9034 13.3643 34.8267 13.3643 34.7325V33.8781H13.7155C13.9986 33.8781 14.2282 33.6485 14.2282 33.3654C14.2282 33.0822 13.9986 32.8527 13.7155 32.8527H12.4456C12.1911 32.8527 11.9727 32.6626 11.9377 32.4105L11.5149 29.3662C11.7418 29.454 11.9871 29.5031 12.243 29.5031C13.3501 29.5031 14.2508 28.6023 14.2508 27.4953V27.1788C14.2508 26.8019 14.5574 26.4952 14.9343 26.4952C15.3113 26.4952 15.6179 26.8019 15.6179 27.1788V29.3298C15.6179 30.3677 16.4622 31.212 17.5001 31.212C18.5379 31.212 19.3822 30.3677 19.3822 29.3298V27.1788C19.3822 26.8019 19.6889 26.4952 20.0658 26.4952C20.4427 26.4952 20.7494 26.8019 20.7494 27.1788V27.4953C20.7494 28.6023 21.6501 29.5031 22.7572 29.5031C23.0132 29.5031 23.2585 29.4542 23.4851 29.3668L23.0623 32.4104C23.0273 32.6626 22.809 32.8527 22.5545 32.8527ZM26.5937 13.1652H8.40644C8.01775 13.1069 7.88985 12.9537 7.90201 12.5607L8.11065 11.413C8.21414 10.8439 8.70913 10.4307 9.28766 10.4307H20.4234C20.7066 10.4307 20.9361 10.2012 20.9361 9.91802C20.9361 9.63488 20.7066 9.40533 20.4234 9.40533H10.9549C11.1931 8.23665 12.2288 7.35455 13.4668 7.35455H21.5332C22.7712 7.35455 23.8069 8.23665 24.0451 9.40533H22.8159C22.5327 9.40533 22.3032 9.63488 22.3032 9.91802C22.3032 10.2012 22.5327 10.4307 22.8159 10.4307H25.7124C26.2909 10.4307 26.7859 10.8438 26.8894 11.413L27.0981 12.5607C27.184 12.9527 27.0063 13.1652 26.5937 13.1652Z" fill="white"/>
<mask id="mask0" mask-type="alpha" maskUnits="userSpaceOnUse" x="6" y="0" width="23" height="36">
<path d="M28.107 12.3773L27.8983 11.2296C27.7061 10.1726 26.7868 9.4054 25.7124 9.4054H25.0849C24.8353 7.66859 23.338 6.32922 21.5333 6.32922H19.0382V1.78333C19.0382 1.31212 18.6548 0.928833 18.1837 0.928833H16.8165C16.3453 0.928833 15.962 1.31212 15.962 1.78333V6.32922H13.4669C11.6621 6.32922 10.1648 7.66859 9.9152 9.4054H9.28766C8.21332 9.4054 7.29403 10.1726 7.1018 11.2297L6.89317 12.3774C6.81134 12.8274 6.93247 13.2869 7.22553 13.638C7.5112 13.9803 7.92744 14.1798 8.37185 14.1897L10.9221 32.5517C11.0223 33.2723 11.622 33.8229 12.3389 33.8732V34.7325C12.3389 35.3921 12.8756 35.9288 13.5352 35.9288H21.4649C22.1245 35.9288 22.6612 35.3921 22.6612 34.7325V33.8731C23.3781 33.8228 23.9779 33.2722 24.078 32.5515L26.6283 14.1896C27.0727 14.1797 27.489 13.9803 27.7746 13.638C28.0677 13.2868 28.1888 12.8274 28.107 12.3773ZM16.9874 1.95422H18.0128V6.32922H16.9874V1.95422ZM25.1656 17.2667H19.0382V14.1906H25.5929L25.1656 17.2667ZM23.7142 27.7171C23.611 28.1649 23.2175 28.4777 22.7572 28.4777C22.2155 28.4777 21.7748 28.0369 21.7748 27.4953V27.1788C21.7748 26.2365 21.0081 25.4698 20.0658 25.4698C19.1235 25.4698 18.3568 26.2365 18.3568 27.1788V29.3298C18.3568 29.8023 17.9725 30.1866 17.5001 30.1866C17.0276 30.1866 16.6433 29.8023 16.6433 29.3298V27.1788C16.6433 26.2365 15.8767 25.4698 14.9343 25.4698C13.992 25.4698 13.2254 26.2365 13.2254 27.1788V27.4953C13.2254 28.0369 12.7846 28.4777 12.243 28.4777C11.7862 28.4777 11.3933 28.1679 11.2876 27.7242L11.2864 27.72L9.97693 18.2921H15.962V22.5646C15.962 23.0358 16.3453 23.4191 16.8165 23.4191H18.1837C18.6549 23.4191 19.0382 23.0358 19.0382 22.5646V18.2921H25.0232L23.7142 27.7171ZM16.9874 18.2921H18.0128V22.3937H16.9874V18.2921ZM18.0128 17.2667H16.9874V14.1906H18.0128V17.2667ZM15.962 17.2667H9.83453L9.40729 14.1906H15.962V17.2667ZM22.5545 32.8527H16.108C15.8249 32.8527 15.5953 33.0822 15.5953 33.3654C15.5953 33.6485 15.8249 33.8781 16.108 33.8781H21.6358V34.7325C21.6358 34.8267 21.5592 34.9034 21.4649 34.9034H13.5352C13.441 34.9034 13.3643 34.8267 13.3643 34.7325V33.8781H13.7155C13.9986 33.8781 14.2282 33.6485 14.2282 33.3654C14.2282 33.0822 13.9986 32.8527 13.7155 32.8527H12.4456C12.1911 32.8527 11.9727 32.6626 11.9377 32.4105L11.5149 29.3662C11.7418 29.454 11.9871 29.5031 12.243 29.5031C13.3501 29.5031 14.2508 28.6023 14.2508 27.4953V27.1788C14.2508 26.8019 14.5574 26.4952 14.9343 26.4952C15.3113 26.4952 15.6179 26.8019 15.6179 27.1788V29.3298C15.6179 30.3677 16.4622 31.212 17.5001 31.212C18.5379 31.212 19.3822 30.3677 19.3822 29.3298V27.1788C19.3822 26.8019 19.6889 26.4952 20.0658 26.4952C20.4427 26.4952 20.7494 26.8019 20.7494 27.1788V27.4953C20.7494 28.6023 21.6501 29.5031 22.7572 29.5031C23.0132 29.5031 23.2585 29.4542 23.4851 29.3668L23.0623 32.4104C23.0273 32.6626 22.809 32.8527 22.5545 32.8527ZM26.5937 13.1652H8.40644C8.01775 13.1069 7.88985 12.9537 7.90201 12.5607L8.11065 11.413C8.21414 10.8439 8.70913 10.4307 9.28766 10.4307H20.4234C20.7066 10.4307 20.9361 10.2012 20.9361 9.91802C20.9361 9.63488 20.7066 9.40533 20.4234 9.40533H10.9549C11.1931 8.23665 12.2288 7.35455 13.4668 7.35455H21.5332C22.7712 7.35455 23.8069 8.23665 24.0451 9.40533H22.8159C22.5327 9.40533 22.3032 9.63488 22.3032 9.91802C22.3032 10.2012 22.5327 10.4307 22.8159 10.4307H25.7124C26.2909 10.4307 26.7859 10.8438 26.8894 11.413L27.0981 12.5607C27.184 12.9527 27.0063 13.1652 26.5937 13.1652Z" fill="white"/>
</mask>
<g mask="url(#mask0)">
<path d="M6 6.20271H29V14.2027H6V6.20271Z" fill="#FE4302"/>
</g>
<path d="M14.2529 19.3175C13.876 19.3175 13.5693 19.6242 13.5693 20.0011C13.5693 20.378 13.876 20.6847 14.2529 20.6847C14.6299 20.6847 14.9365 20.378 14.9365 20.0011C14.9365 19.6242 14.6299 19.3175 14.2529 19.3175Z" fill="#FE4302"/>
<path d="M13.2275 22.5988C12.8506 22.5988 12.5439 22.9054 12.5439 23.2823C12.5439 23.6593 12.8506 23.9659 13.2275 23.9659C13.6045 23.9659 13.9111 23.6593 13.9111 23.2823C13.9111 22.9054 13.6045 22.5988 13.2275 22.5988Z" fill="#FE4302"/>
<path d="M21.4307 20.0011C21.4307 19.6242 21.124 19.3175 20.7471 19.3175C20.3701 19.3175 20.0635 19.6242 20.0635 20.0011C20.0635 20.378 20.3701 20.6847 20.7471 20.6847C21.124 20.6847 21.4307 20.378 21.4307 20.0011Z" fill="#FE4302"/>
<path d="M21.7725 22.5988C21.3955 22.5988 21.0889 22.9054 21.0889 23.2823C21.0889 23.6593 21.3955 23.9659 21.7725 23.9659C22.1494 23.9659 22.4561 23.6593 22.4561 23.2823C22.4561 22.9054 22.1493 22.5988 21.7725 22.5988Z" fill="#FE4302"/>
<path d="M14.082 30.4601C13.7051 30.4601 13.3984 30.7667 13.3984 31.1437C13.3984 31.5206 13.7051 31.8273 14.082 31.8273C14.459 31.8273 14.7656 31.5206 14.7656 31.1437C14.7656 30.7667 14.459 30.4601 14.082 30.4601Z" fill="#FE4302"/>
<path d="M20.918 30.4601C20.541 30.4601 20.2344 30.7667 20.2344 31.1437C20.2344 31.5206 20.541 31.8273 20.918 31.8273C21.2949 31.8273 21.6016 31.5206 21.6016 31.1437C21.6016 30.7667 21.2948 30.4601 20.918 30.4601Z" fill="#FE4302"/>
</g>
<defs>
<clipPath id="clip0">
<rect width="35" height="35" fill="white" transform="translate(0 0.928833)"/>
</clipPath>
</defs>
</svg>
