<?xml version="1.0" encoding="utf-8"?>
<!-- Generator: Adobe Illustrator 24.0.1, SVG Export Plug-In . SVG Version: 6.00 Build 0)  -->
<svg version="1.1" id="Layer_1" xmlns="http://www.w3.org/2000/svg" xmlns:xlink="http://www.w3.org/1999/xlink" x="0px" y="0px"
	 viewBox="0 0 18 18" style="enable-background:new 0 0 18 18;" xml:space="preserve">
<style type="text/css">
	.st0{fill:#E4E4E4;}
</style>
<path class="st0" d="M9,0C4,0,0,4,0,9s4,9,9,9s9-4,9-9S14,0,9,0z M9,7c1.1,0,2,0.9,2,2s-0.9,2-2,2s-2-0.9-2-2S7.9,7,9,7z M11.8,5
	c0-0.7,0.6-1.2,1.2-1.2s1.2,0.6,1.2,1.2S13.7,6.2,13,6.2S11.8,5.7,11.8,5z M9,16c-3.9,0-7-3.1-7-7h3c0,2.2,1.8,4,4,4s4-1.8,4-4h3
	C16,12.9,12.9,16,9,16z"/>
</svg>
